PathFileType	4	(X/Y/Z)	/Users/mathieubourgeois/Desktop/Analyse/Traitement/Sujet_08/Data/Transformed_Sujet_08_velo_100.trc
DataRate	CameraRate	NumFrames	NumMarkers	Units	OrigDataRate	OrigDataStartFrame	OrigNumFrames
120.000000	120.000000	4	35	mm	120.000000	1163	1862
Frame#	Time	RFHD			RANE			STRN			LANI			LKNE			T10			RHUM			RWRB			C7			LFWT			LTOE			RTOE			LWRA			LBWT			RBWT			RFWT			LKNI			RKNI			RKNE			LANE			RANI			LHEE			LHUM			LRAD			RRAD			RWRA			LWRB			LFHD			LBHD			RBHD			RSHO			LSHO			CLAV			LCAR			RCAR			
		X1	Y1	Z1	X2	Y2	Z2	X3	Y3	Z3	X4	Y4	Z4	X5	Y5	Z5	X6	Y6	Z6	X7	Y7	Z7	X8	Y8	Z8	X9	Y9	Z9	X10	Y10	Z10	X11	Y11	Z11	X12	Y12	Z12	X13	Y13	Z13	X14	Y14	Z14	X15	Y15	Z15	X16	Y16	Z16	X17	Y17	Z17	X18	Y18	Z18	X19	Y19	Z19	X20	Y20	Z20	X21	Y21	Z21	X22	Y22	Z22	X23	Y23	Z23	X24	Y24	Z24	X25	Y25	Z25	X26	Y26	Z26	X27	Y27	Z27	X28	Y28	Z28	X29	Y29	Z29	X30	Y30	Z30	X31	Y31	Z31	X32	Y32	Z32	X33	Y33	Z33	X34	Y34	Z34	X35	Y35	Z35	

1164	9.691666666666666	268.5876159667969	1355.905029296875	94.83541107177729	-44.78248214721682	360.6156311035156	175.4521484375	-48.61054229736328	1155.23193359375	13.45018482208244	-260.6602172851562	519.5900268554688	-76.09210205078131	9.368084907531758	819.002685546875	-152.9868316650391	-198.4084625244141	1349.96630859375	14.13819503784169	132.1709747314453	1060.686767578125	204.5250701904297	333.8975219726562	906.9248657226562	250.4519958496093	39.60368728637695	1423.443725585938	12.79193782806388	-260.6478576660156	1096.8212890625	-103.1316146850587	-199.9821014404297	342.0877075195312	-108.4746704101563	136.6952056884765	276.0084533691406	132.6548614501953	354.1339416503906	937.9132690429688	-181.3222351074219	-402.0966796875	1153.834838867188	-32.6351013183595	-392.0732421875	1149.884521484375	100.1868743896483	-232.4818420410157	1085.652954101562	128.3206634521484	-33.88242721557616	758.68896484375	-54.22931289672857	10.02003479003905	709.4852294921875	81.94290924072261	-21.59697723388674	770.0424194335938	185.4131774902343	-294.0243530273438	531.7872314453125	-157.6540069580079	-20.86554718017579	376.7553100585938	95.92096710205075	-342.5364074707031	543.0064086914062	-114.3704452514649	118.8633880615235	1054.21875	-195.9642333984375	162.4370727539063	1080.711181640625	-258.2753906250001	167.2334899902343	1080.786254882812	256.0558471679687	355.2433471679688	926.82177734375	182.3484191894531	328.3770141601563	889.8507690429688	-232.7995300292969	288.2688903808594	1350.81982421875	-33.00311660766607	212.813720703125	1484.147338867188	-62.19468307495124	197.6833801269531	1506.659301757812	74.47477722167963	67.24117279052733	1353.921142578125	142.1647338867187	58.51198196411134	1347.643188476562	-136.0465850830079	58.06199645996094	1287.4423828125	10.1238069534301	425.2662658691407	911.1692504882812	-259.3064270019531	433.3714904785156	914.089111328125	270.0054321289062	
1165	9.699999999999999	268.7710266113281	1356.437133789062	93.79448699951166	-50.81327056884768	345.7876281738281	175.849624633789	-48.37555313110352	1155.362182617188	12.3104000091552	-254.5167388916016	535.332275390625	-76.04442596435553	16.27244186401369	832.6761474609375	-152.5590362548829	-198.1911773681641	1349.97900390625	14.16328525543202	132.5498504638672	1060.674438476562	204.2233123779297	334.0304565429687	906.8346557617188	250.6508483886718	39.84249496459961	1423.546020507812	11.46676254272453	-260.537353515625	1097.312255859375	-103.048309326172	-193.2312774658203	358.4838256835938	-108.2652435302735	130.6154632568359	260.0633239746094	132.7042999267578	354.2244873046875	937.91796875	-181.1047058105469	-401.8093872070312	1153.994262695312	-31.55336952209485	-391.0786743164062	1149.600952148438	101.2117080688475	-231.3852691650391	1084.6279296875	129.2671661376952	-23.59235572814941	770.9576416015625	-52.47843551635747	0.896080195903768	695.1260375976562	82.39459991455074	-31.24707984924319	756.0623168945312	185.9778900146484	-287.7703552246094	547.5674438476562	-157.7662658691407	-26.47213172912599	362.2814331054688	96.47385406494138	-336.610107421875	558.62109375	-114.6135711669923	118.9254302978516	1053.9794921875	-196.1196594238282	162.3648376464844	1080.259033203125	-258.6842956542969	167.5938568115234	1080.9189453125	255.6987609863281	355.4121704101562	926.6405029296875	182.5464782714844	328.5701599121094	889.7620849609375	-232.6217498779297	288.6255798339844	1351.106079101562	-34.02902603149419	212.9598846435547	1484.253784179688	-63.56988525390631	197.5894317626953	1506.932006835938	73.07971954345697	67.8210983276367	1353.853393554688	140.9003906249999	58.5327606201172	1347.583129882812	-137.4544830322266	58.3010368347168	1287.54443359375	8.821963310241628	425.4415588378907	911.1500854492188	-259.0442199707031	433.5436096191406	913.9756469726562	270.30126953125	
1166	9.708333333333334	269.0244445800781	1356.968627929688	92.78436279296869	-58.36087417602541	331.8827209472656	176.5644836425781	-48.02517318725586	1155.56591796875	11.1641483306884	-247.6467895507812	550.4805297851562	-75.84460449218756	22.8374652862549	846.6297607421875	-152.2298126220704	-197.8294982910156	1350.074462890625	14.14544105529774	132.9723358154297	1060.781005859375	204.051040649414	334.1936950683593	906.6975708007812	250.9564361572265	40.18244934082031	1423.730712890625	10.09622478485099	-260.4169921875	1097.910400390625	-102.7618865966798	-185.3145751953125	374.3668518066406	-107.763053894043	122.9419403076172	244.9431915283203	132.7804565429688	354.41015625	937.9364013671875	-180.8179779052734	-401.4066162109375	1154.276733398438	-30.35589027404797	-390.0071411132812	1149.3623046875	102.3028182983397	-230.35791015625	1084.140380859375	129.4786529541015	-14.13709735870361	784.5289916992188	-50.63524627685552	-9.447797775268565	681.5347290039062	82.52473449707027	-41.19780349731447	742.8387451171875	186.5140533447265	-280.6153869628906	562.4739379882812	-157.8797149658204	-32.0567970275879	348.9319458007812	97.7480545043945	-330.0593566894531	573.26220703125	-114.7483291625977	119.1051635742188	1053.873046875	-196.1110992431641	162.4315185546875	1079.861206054688	-258.9189147949219	168.0482025146484	1081.182739257812	255.4632568359375	355.7086486816406	926.4104614257812	182.8687744140625	328.8218688964844	889.7483520507812	-232.3017272949219	289.0725402832031	1351.433959960938	-34.99568176269536	213.2567443847656	1484.396850585938	-64.93423461914068	197.6620941162109	1507.365966796875	71.63787078857416	68.55094909667967	1353.82470703125	139.5628509521484	58.67098236083986	1347.65185546875	-138.849594116211	58.62238693237305	1287.680419921875	7.562583923339772	425.7010498046876	911.1571044921875	-258.6272583007812	433.6811218261718	913.8096923828125	270.7497253417969	
1167	9.716666666666667	269.4031677246094	1357.580200195312	91.82862091064447	-67.24089813232425	319.0068359375	177.5249481201172	-47.70599746704102	1155.77734375	9.991449356079025	-240.0298004150391	564.7823486328125	-75.58937835693365	28.56274223327638	861.1212768554688	-151.8642730712891	-197.3367919921875	1350.197998046875	14.1716547012328	133.4775390625	1060.947143554688	204.0263214111328	334.3712463378906	906.5704345703125	251.3581848144531	40.64738082885742	1423.998291015625	8.7921829223632	-260.2535705566406	1098.7060546875	-102.3268280029298	-175.6724395751953	389.6195373535156	-107.2704010009766	113.6964340209961	230.6115570068359	132.8692779541016	354.6399230957031	937.9779663085938	-180.382568359375	-400.8361206054688	1154.556640625	-29.19023704528821	-388.9044189453125	1149.151123046875	103.4594879150389	-229.3835144042969	1083.872802734375	129.6847381591796	-5.451207637786859	798.9336547851562	-48.7926750183106	-20.80101966857911	669.0170288085938	82.53964233398433	-51.40493774414065	730.56787109375	186.953872680664	-272.8069152832031	576.4663696289062	-157.8451843261719	-41.51915740966798	335.7599487304688	98.5147018432617	-323.255615234375	587.0353393554688	-114.9915466308595	119.3753128051758	1053.868041992188	-196.0245513916016	162.5251922607422	1079.564453125	-259.0661010742188	168.6209564208984	1081.537353515625	255.3342590332031	356.0386962890625	926.2415771484375	183.30615234375	329.1043090820312	889.7484130859375	-231.8159637451172	289.6683654785156	1351.787231445312	-35.95057678222661	213.7040710449219	1484.565063476562	-66.25675201416021	197.8231353759766	1507.798583984375	70.2650527954101	69.44041442871092	1353.90869140625	138.182876586914	58.92275238037111	1347.833251953125	-140.1477966308595	59.05874633789062	1287.899658203125	6.224920749664235	425.9418029785157	911.173828125	-258.1552734375	433.8245849609374	913.60498046875	271.2072448730469	
